<?xml version="1.0" encoding="UTF-8"?>
<svg id="Layer_1" data-name="Layer 1" xmlns="http://www.w3.org/2000/svg" viewBox="0 0 500.16 507.84">
  <defs>
    <style>
      .cls-1 {
        fill: #fff;
      }
    </style>
  </defs>
  <path class="cls-1" d="M0,396C0,381.44001,0,366.87999,0,352.32c.11815-.78668,.31979-1.5711,.34117-2.36039,.16243-5.99561,.31423-11.99174,.42211-17.98852,.17263-9.59596,.11717-19.19326,.43774-28.78992,.30968-9.27062,.20105-18.55245,.52304-27.82778,.25521-7.3519,.26633-14.71236,.42789-22.06887,.34067-15.51179,.65994-31.02407,1.00824-46.53595,.30161-13.43257,.61887-26.86459,.93095-40.29686,.32137-13.83221,.6505-27.66403,.98662-41.49587,.30503-12.55231,.62254-25.10416,.93652-37.65622,.32199-12.87202,.58972-25.74503,.99386-38.61531,.28866-9.19271,.41533-18.39043,.63218-27.58549,.13576-5.75646,.29143-11.51255,.47222-17.26773,.02921-.92975-.31234-2.19836,.58454-2.67318,1.00457-.53182,1.63863,.68584,2.31353,1.26988,10.10163,8.74177,20.06416,17.64068,30.0003,26.56997,25.05101,22.51253,49.68845,45.46964,73.86843,68.91321,17.34455,16.81633,34.4419,33.88324,51.15837,51.32902,21.59249,22.53451,42.59689,45.58853,62.14485,69.93889,.36441,.45393,.60198,1.11683,1.53962,1.24311-.31191-.93847-.56471-1.75663-.85415-2.56162-7.06214-19.64169-11.0343-39.89669-11.87647-60.74452-.48548-12.01838,.28739-23.98146,2.20049-35.86244,3.59279-22.31247,10.91796-43.27008,23.39193-62.19532C265.10959,24.88279,296.58618,5.09108,337.50094,.76148,339.88084,.50964,342.26033,.25392,344.64,0c6.39999,0,12.80001,0,19.2,0,.70884,.10232,1.41606,.27945,2.12675,.29454,3.92241,.0833,7.80636,.60842,11.67688,1.14271,17.68356,2.44105,34.6894,7.26575,50.87675,14.83903,17.34562,8.11519,32.83679,18.80535,45.63032,33.18485,11.29731,12.69785,19.29316,27.1823,23.53822,43.6843,1.17539,4.56919,1.95592,9.20818,2.47107,13.89457v82.08c-.08959,.95033-.2574,1.90066-.25723,2.85098,.00434,22.55452-.41654,45.1022-1.01402,67.64782-.17795,6.71446-.24621,13.43174-.39697,20.1474-.3392,15.10995-.67781,30.21993-1.0176,45.32997-.28576,12.7115-.62426,25.42131-.92309,38.13211-.3177,13.51072-.66375,27.02042-1.00043,40.53053-.29291,11.75121-.61705,23.50128-.92285,35.25199-.32467,12.47039-.60563,24.94148-1.0118,37.40997-.29678,9.11136-.43559,18.22778-.6665,27.3414-.02361,.93211,.29619,2.20547-.64764,2.64656-.98496,.46037-1.65753-.70377-2.34346-1.30248-37.36893-32.61612-73.80926-66.24208-109.3512-100.8375-17.65351-17.18332-34.99919-34.6754-51.93727-52.5697-19.36146-20.45443-38.19858-41.36736-55.8404-63.33659-.31459-.39176-.49301-1.03131-1.25912-.95915-.1038,.8574,.35602,1.54518,.61225,2.27312,9.55187,27.13685,13.74439,54.98115,11.22788,83.74526-1.36726,15.62807-4.60195,30.82588-10.11325,45.51741-8.55416,22.80305-21.46017,42.66688-40.06986,58.57485-20.88201,17.85032-45.21167,27.34948-72.49493,29.5744-1.90411,.15521-3.83043,.23637-5.69251,.75164h-16.32c-.78667-.12598-1.5693-.29268-2.36068-.3709-3.57838-.35367-7.17231-.58043-10.73691-1.03799-15.13345-1.94232-29.84665-5.56711-44.03492-11.22727-17.7077-7.06427-33.84996-16.65158-47.69471-29.86717-18.01388-17.19524-29.41977-37.87468-32.82811-62.73079C.76179,400.39705,.8429,398.12274,0,396Z"/>
</svg>